# xmcd CD database file
#
# Track frame offsets:
#	150
#	7387
#	20166
#	45773
#	58260
#	72085
#	85474
#	97762
#	118335
#
# Disc length: 2176 seconds
#
# Revision: 0
# Processed by: cddbd v1.5.1PL2 Copyright (c) Steve Scherf et al.
# Submitted via: CDex 1.51
#
DISCID=77087e09
DTITLE=Roli Tocco - Sounds of Natural sleep
DYEAR=2005
DGENRE=New Age
TTITLE0=rain
TTITLE1=etheral
TTITLE2=mother nature sounds
TTITLE3=warm colors 
TTITLE4=birds renaissance
TTITLE5=waves sing
TTITLE6=infinit part one
TTITLE7=infinit part two
TTITLE8=floating
EXTD=YEAR: 2005
EXTT0=
EXTT1=
EXTT2=
EXTT3=
EXTT4=
EXTT5=
EXTT6=
EXTT7=
EXTT8=
PLAYORDER=
